<svg width="11" height="9" viewBox="0 0 11 9" fill="none" xmlns="http://www.w3.org/2000/svg">
  <path d="M10.2742 0H0.540747C0.397384 0.000166966 0.259939 0.057192 0.158566 0.158566C0.057192 0.259939 0.000166966 0.397383 0 0.540747V7.75071C0.000166966 7.89408 0.057192 8.03152 0.158566 8.13289C0.259939 8.23427 0.397384 8.29129 0.540747 8.29146H10.2742C10.4176 8.29129 10.555 8.23427 10.6564 8.13289C10.7578 8.03152 10.8148 7.89408 10.8149 7.75071V0.540747C10.8148 0.397383 10.7578 0.259939 10.6564 0.158566C10.555 0.057192 10.4176 0.000166966 10.2742 0ZM10.094 0.720996V2.16299H0.720997V0.720996H10.094ZM0.720997 7.57046V3.60498H10.094V7.57046H0.720997Z" fill="#C2C2C2"/>
</svg>
