<svg width="7" height="11" viewBox="0 0 7 11" fill="none" xmlns="http://www.w3.org/2000/svg">
  <path d="M4.12512 4.7972H2.03938C1.71978 4.7972 1.41326 4.67024 1.18726 4.44424C0.96126 4.21824 0.834296 3.91172 0.834296 3.59211C0.834296 3.2725 0.96126 2.96599 1.18726 2.73999C1.41326 2.51399 1.71978 2.38703 2.03938 2.38703H5.37657V1.55273H3.60369V0H2.76939V1.55273H2.03938C1.49851 1.55273 0.979781 1.76759 0.597322 2.15005C0.214863 2.53251 0 3.05124 0 3.59211C0 4.13299 0.214863 4.65172 0.597322 5.03418C0.979781 5.41664 1.49851 5.6315 2.03938 5.6315H4.12512C4.44462 5.63186 4.75093 5.75894 4.97685 5.98486C5.20278 6.21078 5.32985 6.51709 5.33021 6.83659V6.9293C5.32985 7.2488 5.20278 7.55511 4.97685 7.78103C4.75093 8.00695 4.44462 8.13403 4.12512 8.13439H0.594827V8.96868H2.76939V10.4287H3.60369V8.96868H4.12512C4.66582 8.96807 5.18419 8.75302 5.56652 8.37069C5.94884 7.98836 6.1639 7.46999 6.16451 6.9293V6.83659C6.1639 6.29589 5.94884 5.77752 5.56652 5.3952C5.18419 5.01287 4.66582 4.79781 4.12512 4.7972Z" fill="#C2C2C2"/>
</svg>
