<?xml version="1.0" encoding="utf-8"?>
<!-- Generator: Adobe Illustrator 27.0.0, SVG Export Plug-In . SVG Version: 6.00 Build 0)  -->
<svg version="1.1" id="G_Pay_Acceptance_Mark" xmlns="http://www.w3.org/2000/svg"
	 x="0px" y="0px" viewBox="0 0 523 205.2" style="enable-background:new 0 0 523 205.2;" xml:space="preserve">
<style type="text/css">
	.st0{fill:#3C4043;}
	.st1{fill:#4285F4;}
	.st2{fill:#34A853;}
	.st3{fill:#FABB05;}
	.st4{fill:#E94235;}
</style>
<g id="G_Pay_Lockup_1_">
	<g id="Pay_Typeface_3_">
		<path id="Letter_p_3_" class="st0" d="M244.1,99.8v60.5h-19.2V10.9h50.9c12.9,0,23.9,4.3,32.9,12.9c9.2,8.6,13.8,19.1,13.8,31.5
			c0,12.7-4.6,23.2-13.8,31.7c-8.9,8.5-19.9,12.7-32.9,12.7h-31.7V99.8z M244.1,29.3v52.1h32.1c7.6,0,14-2.6,19-7.7
			c5.1-5.1,7.7-11.3,7.7-18.3c0-6.9-2.6-13-7.7-18.1c-5-5.3-11.3-7.9-19-7.9h-32.1V29.3z"/>
		<path id="Letter_a_3_" class="st0" d="M372.7,54.7c14.2,0,25.4,3.8,33.6,11.4c8.2,7.6,12.3,18,12.3,31.2v63h-18.3v-14.2h-0.8
			c-7.9,11.7-18.5,17.5-31.7,17.5c-11.3,0-20.7-3.3-28.3-10s-11.4-15-11.4-25c0-10.6,4-19,12-25.2c8-6.3,18.7-9.4,32-9.4
			c11.4,0,20.8,2.1,28.1,6.3v-4.4c0-6.7-2.6-12.3-7.9-17c-5.3-4.7-11.5-7-18.6-7c-10.7,0-19.2,4.5-25.4,13.6l-16.9-10.6
			C340.7,61.4,354.5,54.7,372.7,54.7z M347.9,128.9c0,5,2.1,9.2,6.4,12.5c4.2,3.3,9.2,5,14.9,5c8.1,0,15.3-3,21.6-9s9.5-13,9.5-21.1
			c-6-4.7-14.3-7.1-25-7.1c-7.8,0-14.3,1.9-19.5,5.6C350.5,118.7,347.9,123.4,347.9,128.9z"/>
		<path id="Letter_y_3_" class="st0" d="M523,58l-64,147.2h-19.8l23.8-51.5L420.8,58h20.9l30.4,73.4h0.4L502.1,58H523z"/>
	</g>
	<g id="G_Mark_1_">
		<path id="Blue_500" class="st1" d="M167.7,87.6c0-6.3-0.6-12.2-1.6-18H85.6v33l46.4,0c-1.9,11-7.9,20.3-17.2,26.6v21.4h27.6
			C158.5,135.7,167.7,113.6,167.7,87.6z"/>
		<path id="Green_500_1_" class="st2" d="M114.8,129.2c-7.7,5.2-17.6,8.2-29.1,8.2c-22.4,0-41.3-15.1-48.1-35.4H9.1v22.1
			c14.1,28,43.1,47.2,76.6,47.2c23.1,0,42.6-7.6,56.7-20.7L114.8,129.2z"/>
		<path id="Yellow_500_1_" class="st3" d="M34.9,85.6c0-5.7,1-11.2,2.7-16.4V47.2H9.1C3.3,58.8,0,71.8,0,85.6s3.3,26.9,9.1,38.5
			L37.6,102C35.8,96.9,34.9,91.4,34.9,85.6z"/>
		<path id="Red_500" class="st4" d="M85.7,33.9c12.6,0,23.9,4.4,32.9,12.9L143,22.3C128.1,8.5,108.8,0,85.7,0
			C52.2,0,23.2,19.2,9.1,47.2l28.5,22.1C44.4,49,63.3,33.9,85.7,33.9z"/>
	</g>
</g>
</svg>
