<svg width="20" height="26" viewBox="0 0 20 26" fill="none" xmlns="http://www.w3.org/2000/svg">
  <path d="M17.9617 17.748L14.0171 15.1841L15.5042 12.4577C15.8509 11.821 16.0328 11.1077 16.0333 10.3827V6.06667C16.0333 4.45769 15.3942 2.91461 14.2565 1.77689C13.1187 0.639165 11.5757 0 9.96667 0C8.35769 0 6.81461 0.639165 5.67689 1.77689C4.53917 2.91461 3.90001 4.45769 3.90001 6.06667V10.3827C3.90055 11.1077 4.08243 11.821 4.42911 12.4577L5.91625 15.1841L1.97167 17.748C1.36544 18.1405 0.867312 18.6787 0.522863 19.3134C0.178413 19.9482 -0.00135492 20.6591 7.68887e-06 21.3813V26H19.9333V21.3813C19.9347 20.6591 19.7549 19.9482 19.4105 19.3134C19.066 18.6787 18.5679 18.1405 17.9617 17.748ZM18.2 24.2667H1.73334V21.3813C1.73253 20.948 1.8404 20.5214 2.04708 20.1406C2.25376 19.7597 2.55265 19.4368 2.9164 19.2013L8.20631 15.7629L5.95081 11.6277C5.74281 11.2457 5.63368 10.8177 5.63334 10.3827V6.06667C5.63334 4.9174 6.08989 3.81519 6.90254 3.00254C7.7152 2.18988 8.8174 1.73333 9.96667 1.73333C11.1159 1.73333 12.2181 2.18988 13.0308 3.00254C13.8435 3.81519 14.3 4.9174 14.3 6.06667V10.3827C14.2997 10.8177 14.1905 11.2457 13.9825 11.6277L11.7271 15.7629L17.0171 19.2013C17.3808 19.4368 17.6797 19.7598 17.8863 20.1406C18.093 20.5214 18.2008 20.948 18.2 21.3813V24.2667Z" fill="#C2C2C2"/>
</svg>
